<svg xmlns="http://www.w3.org/2000/svg" viewBox="0 0 64 64" fill="none">
  <rect width="64" height="64" rx="12" fill="#2c3e50" opacity="0.05"/>
  <g transform="translate(32, 32)">
    <!-- ビジネスパーソンとチャート -->
    <circle cx="-8" cy="-6" r="5" fill="#2c3e50" opacity="0.8"/>
    <path d="M-12,2 Q-12,-2 -8,-2 Q-4,-2 -4,2 L-4,10 Q-4,12 -6,12 L-10,12 Q-12,12 -12,10 Z" fill="#2c3e50" opacity="0.8"/>
    <!-- 成長チャート -->
    <path d="M2,-8 L6,-4 L10,-6 L14,0 L18,-2" stroke="#2c3e50" stroke-width="2.5" stroke-linecap="round" stroke-linejoin="round" fill="none" opacity="0.8"/>
    <circle cx="2" cy="-8" r="2" fill="#2c3e50" opacity="0.8"/>
    <circle cx="6" cy="-4" r="2" fill="#2c3e50" opacity="0.8"/>
    <circle cx="10" cy="-6" r="2" fill="#2c3e50" opacity="0.8"/>
    <circle cx="14" cy="0" r="2" fill="#2c3e50" opacity="0.8"/>
    <circle cx="18" cy="-2" r="2" fill="#2c3e50" opacity="0.8"/>
    <!-- 矢印（成長） -->
    <path d="M16,-4 L20,-2 L16,0" stroke="#2c3e50" stroke-width="2" stroke-linecap="round" stroke-linejoin="round" fill="none" opacity="0.8"/>
  </g>
</svg>
