<svg xmlns="http://www.w3.org/2000/svg" viewBox="0 0 64 64" fill="none">
  <rect width="64" height="64" rx="12" fill="#2c3e50" opacity="0.05"/>
  <g transform="translate(32, 32)">
    <!-- 円グラフ（削減） -->
    <circle cx="0" cy="0" r="12" fill="none" stroke="#2c3e50" stroke-width="2.5" opacity="0.3"/>
    <path d="M 0,-12 A 12,12 0 0,1 8.485,-8.485 L 0,0 Z" fill="#2c3e50" opacity="0.8"/>
    <path d="M 8.485,-8.485 A 12,12 0 0,1 12,0 L 0,0 Z" fill="#2c3e50" opacity="0.5"/>
    <!-- ハサミ（削減） -->
    <path d="M-8,-8 L-4,-4 L-2,-2 L-4,0 L-2,2 L-4,4 L-8,8" stroke="#2c3e50" stroke-width="2" stroke-linecap="round" opacity="0.8"/>
    <path d="M8,-8 L4,-4 L2,-2 L4,0 L2,2 L4,4 L8,8" stroke="#2c3e50" stroke-width="2" stroke-linecap="round" opacity="0.8"/>
    <circle cx="0" cy="0" r="2" fill="#2c3e50" opacity="0.8"/>
  </g>
</svg>
