<svg xmlns="http://www.w3.org/2000/svg" viewBox="0 0 64 64" fill="none">
  <rect width="64" height="64" rx="12" fill="#2c3e50" opacity="0.05"/>
  <g transform="translate(32, 32)">
    <!-- 複数の人物（チーム） -->
    <circle cx="-8" cy="-6" r="4" fill="#2c3e50" opacity="0.8"/>
    <path d="M-10,2 Q-10,-2 -8,-2 Q-6,-2 -6,2 L-6,10 Q-6,12 -8,12 L-10,12 Q-12,12 -12,10 Z" fill="#2c3e50" opacity="0.8"/>
    <circle cx="0" cy="-6" r="4" fill="#2c3e50" opacity="0.8"/>
    <path d="M-2,2 Q-2,-2 0,-2 Q2,-2 2,2 L2,10 Q2,12 0,12 L-2,12 Q-4,12 -4,10 Z" fill="#2c3e50" opacity="0.8"/>
    <circle cx="8" cy="-6" r="4" fill="#2c3e50" opacity="0.8"/>
    <path d="M6,2 Q6,-2 8,-2 Q10,-2 10,2 L10,10 Q10,12 8,12 L6,12 Q4,12 4,10 Z" fill="#2c3e50" opacity="0.8"/>
    <!-- 矢印（内製化） -->
    <path d="M-2,8 L2,8" stroke="#2c3e50" stroke-width="2" stroke-linecap="round" opacity="0.8"/>
    <path d="M0,6 L2,8 L0,10" stroke="#2c3e50" stroke-width="2" stroke-linecap="round" stroke-linejoin="round" fill="none" opacity="0.8"/>
  </g>
</svg>
