<svg xmlns="http://www.w3.org/2000/svg" viewBox="0 0 64 64" fill="none">
  <rect width="64" height="64" rx="12" fill="#2c3e50" opacity="0.05"/>
  <g transform="translate(32, 32)">
    <!-- 講師と受講者 -->
    <circle cx="0" cy="-10" r="5" fill="#2c3e50" opacity="0.8"/>
    <path d="M-6,0 Q-6,-4 0,-4 Q6,-4 6,0 L6,8 Q6,10 4,10 L-4,10 Q-6,10 -6,8 Z" fill="#2c3e50" opacity="0.8"/>
    <!-- 受講者（複数） -->
    <circle cx="-10" cy="2" r="3" fill="#2c3e50" opacity="0.6"/>
    <path d="M-12,8 Q-12,6 -10,6 Q-8,6 -8,8 L-8,12 Q-8,13 -9,13 L-11,13 Q-12,13 -12,12 Z" fill="#2c3e50" opacity="0.6"/>
    <circle cx="10" cy="2" r="3" fill="#2c3e50" opacity="0.6"/>
    <path d="M8,8 Q8,6 10,6 Q12,6 12,8 L12,12 Q12,13 11,13 L9,13 Q8,13 8,12 Z" fill="#2c3e50" opacity="0.6"/>
    <!-- スピーチバブル -->
    <path d="M-4,-16 Q-4,-18 -2,-18 L2,-18 Q4,-18 4,-16 L4,-14 Q4,-12 2,-12 L-2,-12 Q-4,-12 -4,-14 Z" fill="#2c3e50" opacity="0.3"/>
    <path d="M-2,-12 L0,-10 L2,-12" fill="#2c3e50" opacity="0.3"/>
  </g>
</svg>
